<svg xmlns="http://www.w3.org/2000/svg" height="48" viewBox="0 -960 960 960" width="48"><path d="M175.792-201.038q-22.242 0-38.44-16.199-16.198-16.198-16.198-38.457v-448.612q0-22.259 16.198-38.457 16.198-16.199 38.44-16.199h608.416q22.242 0 38.44 16.199 16.198 16.198 16.198 38.457v448.612q0 22.259-16.198 38.457-16.198 16.199-38.44 16.199H175.792ZM480-487.134l-328.654-218.75v450.038q0 10.769 6.923 17.692t17.692 6.923h608.078q10.769 0 17.692-6.923t6.923-17.692v-450.038L480-487.134Zm0-33.981 314.539-207.654H166.461L480-521.115ZM151.346-705.884v-22.885 472.923q0 10.769 6.923 17.692t17.692 6.923h-24.615v-474.653Z"/></svg>